<svg xmlns="http://www.w3.org/2000/svg" width="10" height="10" viewBox="0 0 10 10"><rect width="100%" height="100%" fill="#DDDDDD"/><path fill="#999999" d="M2.345 5.54h.26v.18h-.8v-.18h.29v-.85q0-.05.01-.1l-.21.17q-.02.02-.04.02h-.03q-.02 0-.03-.01l-.02-.02-.07-.1.44-.38h.2v1.27ZM3.835 5q0 .19-.04.33-.04.13-.11.23-.07.09-.17.13-.09.05-.21.05-.11 0-.21-.05-.09-.04-.16-.13-.08-.1-.12-.23-.04-.14-.04-.33t.04-.33q.04-.14.12-.23.07-.09.16-.14.1-.04.21-.04.12 0 .21.04.1.05.17.14.07.09.11.23.04.14.04.33Zm-.25 0q0-.16-.02-.26-.03-.11-.07-.17-.03-.06-.08-.08-.05-.03-.11-.03-.05 0-.1.03-.05.02-.09.08-.04.06-.06.17-.02.1-.02.26 0 .15.02.26.02.1.06.16.04.06.09.09.05.02.1.02.06 0 .11-.02.05-.03.08-.09.04-.06.07-.16.02-.11.02-.26Zm1.84.39-.13.13-.34-.34-.34.34-.13-.13.34-.34-.33-.33.13-.13.33.33.32-.33.14.13-.33.33.34.34Zm1.37.15h.26v.18h-.8v-.18h.29v-.85q0-.05.01-.1l-.21.17q-.02.02-.04.02h-.03q-.02 0-.03-.01l-.02-.02-.07-.1.44-.38h.2v1.27Zm1.5-.54q0 .19-.04.33-.05.13-.12.23-.07.09-.17.13-.09.05-.21.05-.11 0-.21-.05-.09-.04-.16-.13-.07-.1-.11-.23-.04-.14-.04-.33t.04-.33q.04-.14.11-.23t.16-.14q.1-.04.21-.04.12 0 .21.04.1.05.17.14.07.09.12.23.04.14.04.33Zm-.26 0q0-.16-.02-.26-.02-.11-.06-.17-.04-.06-.09-.08-.05-.03-.11-.03-.05 0-.1.03-.05.02-.09.08-.03.06-.06.17-.02.1-.02.26 0 .15.02.26.03.1.06.16.04.06.09.09.05.02.1.02.06 0 .11-.02.05-.03.09-.09.04-.06.06-.16.02-.11.02-.26Z"/></svg>