<svg xmlns="http://www.w3.org/2000/svg" width="100" height="100" viewBox="0 0 100 100"><rect width="100%" height="100%" fill="#DDDDDD"/><path fill="#999999" d="M22.91 35.755h2.11q.78 0 1.35-.19.58-.2.96-.56.39-.36.58-.88.19-.52.19-1.16 0-.61-.19-1.11-.19-.49-.57-.84-.38-.34-.96-.53-.57-.18-1.36-.18h-2.11v5.45Zm-2.83-7.63h4.94q1.52 0 2.64.35 1.11.36 1.83 1 .73.64 1.08 1.53.35.9.35 1.96 0 1.1-.37 2.02-.36.92-1.1 1.58-.73.66-1.84 1.03t-2.59.37h-2.11v5.34h-2.83v-15.18Zm14.88 5.06.16 1.22q.5-.97 1.2-1.52.69-.55 1.64-.55.74 0 1.19.32l-.17 1.95q-.05.18-.15.26-.1.08-.27.08-.15 0-.46-.05-.31-.05-.61-.05-.43 0-.76.12-.34.13-.61.37-.26.23-.47.57-.2.33-.38.76v6.64h-2.6v-10.77h1.53q.4 0 .55.14.16.14.21.51Zm10.31-.82q1.2 0 2.18.39.98.39 1.68 1.1.7.71 1.08 1.74.38 1.03.38 2.3 0 1.28-.38 2.31t-1.08 1.76q-.7.72-1.68 1.11-.98.39-2.18.39-1.2 0-2.19-.39t-1.69-1.11q-.69-.73-1.08-1.76-.38-1.03-.38-2.31 0-1.27.38-2.3.39-1.03 1.08-1.74.7-.71 1.69-1.1.99-.39 2.19-.39Zm0 9.1q1.35 0 1.99-.9.65-.9.65-2.65 0-1.74-.65-2.65-.64-.92-1.99-.92-1.36 0-2.02.92-.65.92-.65 2.65 0 1.74.65 2.64.66.91 2.02.91Zm10.65 1.84h-2.59v-8.82l-.94-.15q-.3-.06-.48-.21-.19-.15-.19-.44v-1.06h1.61v-.8q0-.92.28-1.66.27-.73.79-1.25.52-.51 1.27-.78.74-.28 1.68-.28.74 0 1.39.2l-.06 1.31q-.01.14-.08.23t-.2.14q-.12.05-.27.06-.16.02-.34.02-.46 0-.82.1-.37.1-.62.34-.25.25-.38.65-.13.41-.13 1.01v.71h2.8v1.85h-2.72v8.83Zm4.26-10.77h2.61v10.77h-2.61v-10.77Zm2.97-3.14q0 .33-.14.63-.14.29-.36.51-.23.22-.53.35-.31.13-.65.13t-.64-.13q-.3-.13-.52-.35-.22-.22-.35-.51-.13-.3-.13-.63 0-.35.13-.65.13-.31.35-.53.22-.22.52-.35.3-.13.64-.13t.65.13q.3.13.53.35.22.22.36.53.14.3.14.65Zm2.32-1.69h2.59v15.6h-2.59v-15.6Zm7.23 8.97h4.89q0-.5-.14-.95-.14-.44-.42-.78-.29-.33-.72-.53-.44-.19-1.02-.19-1.12 0-1.77.64-.64.64-.82 1.81Zm6.62 1.57h-6.67q.06.83.29 1.43.23.61.61 1t.9.59q.52.19 1.15.19.63 0 1.09-.15.45-.14.79-.32t.6-.33q.26-.14.5-.14.33 0 .48.24l.75.94q-.43.51-.97.85-.53.34-1.12.54-.58.21-1.18.29-.61.09-1.17.09-1.13 0-2.09-.38-.97-.37-1.68-1.1-.72-.73-1.13-1.8-.41-1.08-.41-2.5 0-1.1.36-2.07.36-.97 1.03-1.69.66-.72 1.62-1.14.96-.42 2.17-.42 1.02 0 1.88.32.86.33 1.48.95.62.63.97 1.54t.35 2.07q0 .59-.12.79-.13.21-.48.21Zm-53.69 15.08v15.18h-2.84v-15.18h2.84Zm5.57 15.18h-2.59v-10.77h1.59q.5 0 .66.47l.17.8q.28-.32.59-.58.31-.26.66-.45.35-.19.76-.3.4-.11.88-.11 1.02 0 1.68.55.65.55.98 1.47.25-.54.63-.92.38-.39.83-.63.45-.24.96-.36.51-.11 1.02-.11.9 0 1.59.27.69.28 1.17.8.47.53.71 1.28.25.76.25 1.73v6.86h-2.59v-6.86q0-1.03-.45-1.55-.46-.51-1.33-.51-.4 0-.74.13-.34.14-.6.4-.25.25-.4.64-.15.39-.15.89v6.86h-2.6v-6.86q0-1.08-.44-1.57-.43-.49-1.27-.49-.57 0-1.06.27-.49.28-.91.76v7.89Zm20.69-2.78v-1.82q-1.12.05-1.89.2-.77.14-1.23.36-.46.22-.66.51-.2.3-.2.64 0 .69.4.98.41.29 1.06.29.8 0 1.38-.29.58-.28 1.14-.87Zm-5.48-5.66-.46-.83q1.85-1.7 4.47-1.7.94 0 1.69.31t1.26.86q.51.55.78 1.32.27.76.27 1.68v6.8h-1.18q-.36 0-.56-.11-.2-.11-.32-.45l-.23-.77q-.41.36-.8.64-.39.28-.81.47-.42.19-.89.29-.48.1-1.06.1-.68 0-1.26-.19-.58-.18-1-.55-.42-.36-.65-.91-.23-.55-.23-1.27 0-.41.14-.81.13-.41.44-.78.31-.36.81-.69.49-.32 1.21-.57.72-.24 1.68-.39.95-.15 2.18-.18v-.63q0-1.09-.46-1.61-.46-.51-1.34-.51-.63 0-1.04.14-.42.15-.73.33-.32.19-.57.33-.26.15-.58.15-.27 0-.46-.14t-.3-.33Zm14.38 2.79q.49 0 .84-.13.36-.13.6-.36.23-.23.35-.56.12-.32.12-.71 0-.8-.47-1.27-.48-.47-1.44-.47-.95 0-1.43.47t-.48 1.27q0 .38.12.7.12.33.36.56.24.24.6.37t.83.13Zm2.93 6.13q0-.31-.19-.51t-.51-.31q-.33-.11-.76-.16-.44-.06-.93-.08-.48-.03-1-.05-.52-.02-1.02-.08-.43.24-.7.56-.26.33-.26.76 0 .28.14.53t.45.42q.31.18.8.28.5.1 1.21.1.73 0 1.25-.11.53-.11.87-.3.34-.2.5-.46.15-.27.15-.59Zm-.51-10.89h3.1v.97q0 .46-.56.57l-.97.18q.22.55.22 1.21 0 .8-.32 1.45-.32.64-.88 1.1-.57.45-1.34.69-.77.25-1.67.25-.31 0-.61-.03-.29-.03-.57-.09-.51.31-.51.69 0 .32.3.47.3.16.79.22.5.06 1.13.08.63.01 1.29.07.66.05 1.29.18t1.12.42q.5.28.8.77.3.49.3 1.25 0 .72-.35 1.39-.36.67-1.02 1.2-.67.52-1.64.84-.97.32-2.21.32-1.22 0-2.12-.24-.91-.23-1.5-.63-.6-.39-.9-.9-.29-.52-.29-1.07 0-.76.46-1.27.45-.51 1.25-.81-.43-.22-.68-.59-.25-.37-.25-.97 0-.24.09-.5.08-.25.26-.51.17-.25.43-.47.27-.23.62-.41-.82-.44-1.28-1.17-.47-.74-.47-1.73 0-.79.32-1.44.32-.65.89-1.1.57-.46 1.36-.7.78-.24 1.7-.24.7 0 1.31.14.6.14 1.11.41Zm6.78 3.78h4.89q0-.5-.14-.95-.14-.44-.42-.78-.29-.33-.72-.53-.44-.19-1.02-.19-1.12 0-1.76.64-.65.64-.83 1.81Zm6.62 1.57h-6.67q.06.83.29 1.43.23.61.61 1t.9.59q.52.19 1.15.19.63 0 1.09-.14.45-.15.79-.33.35-.18.6-.33.26-.14.5-.14.33 0 .48.24l.75.94q-.43.51-.97.85-.53.34-1.11.54-.59.21-1.19.29-.6.09-1.17.09-1.13 0-2.09-.38-.97-.37-1.68-1.1-.72-.73-1.12-1.8-.41-1.08-.41-2.5 0-1.1.35-2.07.36-.97 1.03-1.69.66-.72 1.62-1.14.96-.42 2.17-.42 1.02 0 1.88.32.86.33 1.48.95.62.63.97 1.54.36.91.36 2.07 0 .59-.13.79-.13.21-.48.21Z"/></svg>