<svg xmlns="http://www.w3.org/2000/svg" width="400" height="400" viewBox="0 0 400 400"><rect width="100%" height="100%" fill="#DDDDDD"/><path fill="#999999" d="M144.655 140q0 5.95 1.6 10.67 1.6 4.73 4.57 8 2.98 3.28 7.2 5.03 4.23 1.75 9.53 1.75 5.3 0 9.52-1.75 4.23-1.75 7.18-5.03 2.95-3.27 4.55-8 1.6-4.72 1.6-10.67t-1.6-10.68q-1.6-4.72-4.55-8.02-2.95-3.3-7.18-5.05-4.22-1.75-9.52-1.75t-9.53 1.75q-4.22 1.75-7.2 5.05-2.97 3.3-4.57 8.02-1.6 4.73-1.6 10.68Zm44.9 30.3 18.35 20h-11.1q-2.4 0-4.33-.65-1.92-.65-3.52-2.4l-10.6-11.7q-2.55.7-5.23 1.05-2.67.35-5.57.35-8.2 0-14.95-2.78-6.75-2.77-11.58-7.72-4.82-4.95-7.47-11.73-2.65-6.77-2.65-14.72 0-7.95 2.65-14.73 2.65-6.77 7.47-11.72 4.83-4.95 11.58-7.73 6.75-2.77 14.95-2.77 5.5 0 10.35 1.27 4.85 1.28 8.9 3.6 4.05 2.33 7.27 5.65 3.23 3.33 5.48 7.43 2.25 4.1 3.42 8.9 1.18 4.8 1.18 10.1 0 4.85-1 9.27-1 4.43-2.88 8.28-1.87 3.85-4.57 7.07-2.7 3.23-6.15 5.68Zm39.85-32.05h8.4q3.8 0 6.62-.95 2.83-.95 4.66-2.63 1.82-1.67 2.72-3.97.9-2.3.9-5.05 0-5.5-3.62-8.45-3.63-2.95-11.08-2.95h-8.6v24Zm24.9 11.2 18.1 26.7h-12.15q-3.45 0-5-2.7l-15.2-23.15q-.85-1.3-1.87-1.85-1.03-.55-3.03-.55h-5.75v28.25h-13.45v-72.3h22.05q7.35 0 12.63 1.52 5.27 1.53 8.65 4.28 3.37 2.75 4.97 6.57 1.6 3.83 1.6 8.43 0 3.65-1.07 6.9-1.08 3.25-3.1 5.9-2.03 2.65-5 4.65-2.98 2-6.78 3.15 1.3.75 2.4 1.77 1.1 1.03 2 2.43ZM140.475 279.1q1.1 0 1.95.85l5.3 5.75q-4.4 5.45-10.82 8.35-6.43 2.9-15.43 2.9-8.05 0-14.47-2.75-6.43-2.75-10.98-7.65-4.55-4.9-6.97-11.7-2.43-6.8-2.43-14.85 0-8.15 2.6-14.93 2.6-6.77 7.33-11.67 4.72-4.9 11.27-7.62 6.55-2.73 14.5-2.73 7.9 0 14.03 2.6 6.12 2.6 10.42 6.8l-4.5 6.25q-.4.6-1.02 1.05-.63.45-1.73.45-.75 0-1.55-.42-.8-.43-1.75-1.06-.95-.62-2.2-1.37-1.25-.75-2.9-1.38-1.65-.62-3.82-1.05-2.18-.42-5.03-.42-4.85 0-8.87 1.72-4.03 1.73-6.93 5-2.9 3.28-4.5 8-1.6 4.73-1.6 10.78 0 6.1 1.73 10.85 1.72 4.75 4.67 8t6.95 4.97q4 1.73 8.6 1.73 2.75 0 4.98-.3 2.22-.3 4.1-.95 1.87-.65 3.55-1.68 1.67-1.02 3.32-2.52.5-.45 1.05-.73.55-.27 1.15-.27Zm37.25-35.05q5.7 0 10.38 1.85 4.67 1.85 8 5.25 3.32 3.4 5.12 8.3 1.8 4.9 1.8 10.95 0 6.1-1.8 11t-5.12 8.35q-3.33 3.45-8 5.3-4.68 1.85-10.38 1.85-5.75 0-10.45-1.85-4.7-1.85-8.02-5.3-3.33-3.45-5.15-8.35-1.83-4.9-1.83-11 0-6.05 1.83-10.95 1.82-4.9 5.15-8.3 3.32-3.4 8.02-5.25 4.7-1.85 10.45-1.85Zm0 43.35q6.4 0 9.48-4.3 3.07-4.3 3.07-12.6t-3.07-12.65q-3.08-4.35-9.48-4.35-6.5 0-9.62 4.37-3.13 4.38-3.13 12.63t3.13 12.57q3.12 4.33 9.62 4.33Zm66.95-6.45v-23q-2.1-2.55-4.57-3.6-2.48-1.05-5.32-1.05-2.81 0-5.06 1.05-2.25 1.05-3.85 3.18-1.6 2.12-2.45 5.4-.85 3.27-.85 7.72 0 4.5.73 7.63.72 3.12 2.07 5.09 1.35 1.98 3.3 2.86 1.95.87 4.36.87 3.84 0 6.54-1.6t5.1-4.55Zm0-59.1h12.36v74.3h-7.56q-2.44 0-3.1-2.25l-1.05-4.95q-3.1 3.55-7.12 5.75-4.03 2.2-9.38 2.2-4.2 0-7.7-1.75t-6.02-5.08q-2.53-3.32-3.9-8.22-1.38-4.9-1.38-11.2 0-5.7 1.55-10.6 1.55-4.9 4.45-8.5 2.9-3.6 6.95-5.62 4.05-2.03 9.1-2.03 4.3 0 7.35 1.35t5.45 3.65v-27.05Zm34.3 42.75h23.31q0-2.4-.68-4.53-.67-2.12-2.03-3.72-1.35-1.6-3.42-2.53-2.08-.92-4.83-.92-5.35 0-8.42 3.05-3.08 3.05-3.93 8.65Zm31.5 7.45h-31.75q.31 3.95 1.4 6.82 1.1 2.88 2.91 4.75 1.79 1.88 4.27 2.81 2.48.92 5.48.92 3 0 5.17-.7t3.8-1.55q1.62-.85 2.85-1.55 1.22-.7 2.37-.7 1.56 0 2.31 1.15l3.54 4.5q-2.04 2.4-4.6 4.03-2.54 1.62-5.32 2.59-2.78.98-5.65 1.38-2.88.4-5.58.4-5.35 0-9.95-1.78-4.6-1.77-8-5.25-3.4-3.47-5.35-8.59-1.95-5.13-1.95-11.88 0-5.25 1.7-9.87 1.7-4.63 4.88-8.06 3.17-3.42 7.75-5.42 4.57-2 10.32-2 4.86 0 8.96 1.55 4.09 1.55 7.04 4.52 2.96 2.98 4.63 7.31 1.67 4.32 1.67 9.87 0 2.8-.59 3.77-.6.98-2.31.98Z"/></svg>