<svg xmlns="http://www.w3.org/2000/svg" width="100" height="100" viewBox="0 0 100 100"><rect width="100%" height="100%" fill="#DDDDDD"/><path fill="#999999" d="M30.805 37.855q0 1.43-.47 2.63-.48 1.2-1.35 2.06-.86.87-2.07 1.34-1.22.48-2.7.48h-4.96v-13.01h4.96q1.48 0 2.7.48 1.21.48 2.07 1.34.87.86 1.35 2.05.47 1.2.47 2.63Zm-2.48 0q0-1.07-.29-1.92-.28-.85-.81-1.44-.54-.59-1.3-.9-.76-.32-1.71-.32h-2.53v9.16h2.53q.95 0 1.71-.31.76-.32 1.3-.91.53-.59.81-1.44.29-.85.29-1.92Zm6.02.83h4.19q0-.43-.12-.81-.12-.39-.36-.67-.25-.29-.62-.46-.37-.17-.87-.17-.96 0-1.51.55-.56.55-.71 1.56Zm5.67 1.34h-5.72q.06.71.26 1.23.19.52.52.86.32.33.77.5.44.17.98.17t.93-.13q.4-.13.69-.28.29-.15.51-.28.22-.12.43-.12.28 0 .41.2l.64.81q-.37.43-.83.73-.45.29-.95.47-.5.17-1.02.24-.52.08-1 .08-.97 0-1.8-.32-.82-.32-1.44-.95-.61-.63-.96-1.55t-.35-2.14q0-.94.31-1.77.3-.84.87-1.45.58-.62 1.4-.98t1.86-.36q.87 0 1.61.28.74.28 1.27.82.53.53.83 1.31.3.78.3 1.78 0 .5-.11.68-.1.17-.41.17Zm4.41-2.19v4.14q.38.45.82.64.45.19.97.19.5 0 .91-.19.4-.19.69-.57.28-.39.43-.98.16-.59.16-1.39 0-.81-.13-1.37t-.38-.92q-.24-.35-.59-.51-.34-.16-.78-.16-.7 0-1.18.29-.49.29-.92.83Zm-.3-2.3.18.86q.57-.64 1.29-1.04.72-.4 1.69-.4.76 0 1.38.32.63.31 1.08.91.46.6.71 1.48.24.88.24 2.01 0 1.04-.28 1.92-.28.88-.79 1.53-.52.65-1.25 1.01-.74.37-1.65.37-.77 0-1.32-.24t-.98-.67v3.79h-2.22v-12.25h1.36q.43 0 .56.4Zm12.39-.55q1.02 0 1.86.33.85.34 1.44.95.6.61.93 1.49.32.89.32 1.97 0 1.1-.32 1.98-.33.89-.93 1.51-.59.62-1.44.95-.84.34-1.86.34-1.04 0-1.88-.34-.85-.33-1.45-.95-.6-.62-.93-1.51-.32-.88-.32-1.98 0-1.08.32-1.97.33-.88.93-1.49.6-.61 1.45-.95.84-.33 1.88-.33Zm0 7.8q1.15 0 1.7-.77.56-.77.56-2.27 0-1.49-.56-2.27-.55-.79-1.7-.79-1.17 0-1.74.79-.56.79-.56 2.27 0 1.49.56 2.27.57.77 1.74.77Zm12.39-6.66-.5.81q-.09.14-.19.2t-.26.06q-.16 0-.34-.09-.19-.09-.43-.21-.24-.11-.55-.2-.31-.09-.74-.09-.65 0-1.03.28-.37.28-.37.73 0 .3.19.5.2.2.52.35.32.16.72.28.41.12.82.26.42.15.83.33.4.19.72.47.32.28.52.68.19.4.19.95 0 .67-.24 1.23-.24.57-.71.98-.46.4-1.15.63-.69.23-1.59.23-.48 0-.93-.08-.46-.09-.88-.24-.41-.15-.77-.36-.36-.21-.63-.45l.52-.85q.1-.15.23-.23.14-.08.34-.08.21 0 .4.12.18.11.42.25.25.13.57.25.33.12.84.12.39 0 .68-.1.28-.09.46-.25.19-.15.27-.35.09-.2.09-.42 0-.32-.19-.53-.2-.21-.52-.36t-.73-.27q-.41-.13-.83-.27-.43-.14-.84-.34-.41-.19-.73-.49t-.51-.73q-.2-.43-.2-1.04 0-.57.23-1.08.22-.51.66-.9.44-.38 1.09-.61.65-.23 1.51-.23.95 0 1.73.32.79.31 1.31.82Zm1.84-.99h2.24v9.23h-2.24v-9.23Zm2.54-2.7q0 .29-.11.54-.12.26-.31.45-.2.18-.46.3-.26.11-.56.11-.29 0-.54-.11-.26-.12-.45-.3-.19-.19-.3-.45-.11-.25-.11-.54 0-.29.11-.55.11-.26.3-.45t.45-.3q.25-.12.54-.12.3 0 .56.12.26.11.46.3.19.19.31.45.11.26.11.55Zm5.04 12.07q-1.2 0-1.85-.68-.64-.68-.64-1.87v-5.16h-.95q-.18 0-.3-.12-.13-.11-.13-.35v-.88l1.49-.24.47-2.52q.04-.18.17-.28.12-.1.32-.1h1.15v2.91h2.47v1.58h-2.47v5q0 .44.21.68.22.24.58.24.21 0 .35-.05.14-.05.24-.1.11-.05.19-.1t.16-.05q.1 0 .16.05.07.05.14.14l.66 1.08q-.48.41-1.11.62-.63.2-1.31.2Zm-55.61 14.64h1.51q.68 0 1.19-.17.51-.17.84-.48.33-.3.49-.71.16-.41.16-.91 0-.99-.65-1.52t-2-.53h-1.54v4.32Zm4.48 2.01 3.26 4.81h-2.19q-.62 0-.9-.49l-2.74-4.16q-.15-.24-.33-.34-.19-.09-.55-.09h-1.03v5.08h-2.42v-13.01h3.96q1.33 0 2.28.27.95.27 1.55.77.61.5.9 1.18.29.69.29 1.52 0 .66-.2 1.24-.19.59-.55 1.06-.37.48-.9.84-.54.36-1.22.57.23.13.43.32.2.18.36.43Zm6.07-.87h4.2q0-.43-.12-.81-.13-.39-.37-.67-.24-.29-.61-.46-.38-.16-.87-.16-.97 0-1.52.54-.55.55-.71 1.56Zm5.67 1.34h-5.71q.05.71.25 1.23t.52.86q.33.33.77.5.45.17.99.17t.93-.13q.39-.13.68-.28.3-.15.52-.28.22-.12.42-.12.28 0 .42.2l.64.81q-.37.44-.83.73-.46.29-.96.47-.5.17-1.02.24-.51.08-1 .08-.96 0-1.79-.32-.83-.32-1.44-.95-.61-.62-.96-1.55-.36-.92-.36-2.13 0-.95.31-1.78.31-.83.88-1.45.57-.62 1.39-.98.83-.36 1.86-.36.87 0 1.61.28.74.28 1.27.82.53.53.83 1.31.31.78.31 1.78 0 .5-.11.68-.11.17-.42.17Zm9.39-3.75-.58.81q-.1.13-.2.2-.09.07-.27.07-.17 0-.33-.1-.17-.11-.39-.24-.23-.13-.54-.23-.31-.11-.77-.11-.58 0-1.02.22-.44.21-.74.6-.29.4-.43.96-.15.56-.15 1.27 0 .74.16 1.32.16.58.46.97.29.39.72.59.42.2.95.2t.86-.13q.33-.13.55-.29.23-.15.39-.28.17-.13.38-.13.27 0 .4.2l.64.81q-.37.44-.8.73-.43.29-.9.47-.46.17-.95.24-.49.08-.98.08-.85 0-1.61-.32-.75-.32-1.32-.94-.57-.61-.9-1.49-.32-.89-.32-2.03 0-1.01.29-1.88.29-.87.86-1.5.56-.64 1.4-1 .84-.36 1.93-.36 1.03 0 1.81.33.78.34 1.4.96Zm3.23 2.41h4.2q0-.43-.13-.81-.12-.39-.36-.67-.24-.29-.62-.46-.37-.16-.86-.16-.97 0-1.52.54-.56.55-.71 1.56Zm5.67 1.34h-5.71q.05.71.25 1.23t.52.86q.33.33.77.5.45.17.99.17t.93-.13q.39-.13.68-.28.29-.15.51-.28.23-.12.43-.12.28 0 .42.2l.64.81q-.37.44-.83.73-.46.29-.96.47-.5.17-1.02.24-.52.08-1 .08-.97 0-1.79-.32-.83-.32-1.44-.95-.62-.62-.97-1.55-.35-.92-.35-2.13 0-.95.31-1.78.3-.83.88-1.45.57-.62 1.39-.98.83-.36 1.86-.36.87 0 1.61.28.74.28 1.27.82.53.53.83 1.31.3.78.3 1.78 0 .5-.1.68-.11.17-.42.17Zm2.26-4.89h2.23v9.23h-2.23v-9.23Zm2.54-2.69q0 .28-.12.53-.11.26-.31.45-.19.19-.45.3-.26.11-.56.11-.29 0-.55-.11-.25-.11-.44-.3t-.3-.45q-.11-.25-.11-.53 0-.3.11-.56.11-.26.3-.45t.44-.3q.26-.12.55-.12.3 0 .56.12.26.11.45.3.2.19.31.45.12.26.12.56Zm4.18 5.39v4.14q.38.46.83.64.44.19.97.19.5 0 .9-.19.41-.18.69-.57.29-.39.44-.98.15-.59.15-1.39 0-.81-.13-1.37t-.37-.91q-.24-.36-.59-.52-.35-.16-.79-.16-.69 0-1.18.29-.48.3-.92.83Zm-.29-2.3.18.86q.56-.64 1.28-1.04.72-.39 1.7-.39.75 0 1.38.31.62.32 1.08.91.45.6.7 1.48.25.88.25 2.01 0 1.04-.28 1.92-.28.88-.8 1.53t-1.25 1.01q-.73.37-1.64.37-.78 0-1.32-.24-.55-.24-.99-.66v3.78h-2.22v-12.25h1.36q.43 0 .57.4Zm11.37 8.97q-1.2 0-1.85-.68-.64-.67-.64-1.87v-5.16h-.94q-.18 0-.31-.12-.13-.11-.13-.35v-.88l1.49-.24.47-2.52q.04-.18.17-.28.12-.1.32-.1h1.15v2.91h2.47v1.58h-2.47v5.01q0 .43.21.67.22.24.59.24.2 0 .34-.05t.24-.1q.11-.05.19-.1t.16-.05q.1 0 .16.05.07.05.14.15l.66 1.08q-.48.4-1.11.61-.63.2-1.31.2Z"/></svg>