<svg xmlns="http://www.w3.org/2000/svg" width="400" height="400" viewBox="0 0 400 400"><rect width="100%" height="100%" fill="#DDDDDD"/><path fill="#999999" d="M126.43 153.46q0 5.48-1.83 10.07t-5.14 7.9q-3.31 3.31-7.97 5.14-4.66 1.83-10.35 1.83H82.13v-49.89h19.01q5.69 0 10.35 1.85 4.66 1.84 7.97 5.14 3.31 3.29 5.14 7.88 1.83 4.59 1.83 10.08Zm-9.53 0q0-4.11-1.08-7.37-1.09-3.26-3.14-5.52t-4.97-3.47q-2.92-1.2-6.57-1.2h-9.7v35.12h9.7q3.65 0 6.57-1.21 2.92-1.21 4.97-3.47 2.05-2.26 3.14-5.52 1.08-3.26 1.08-7.36Zm23.08 3.17h16.08q0-1.66-.46-3.12-.47-1.47-1.4-2.57-.93-1.11-2.36-1.74-1.44-.64-3.33-.64-3.7 0-5.82 2.1-2.12 2.11-2.71 5.97Zm21.74 5.14h-21.91q.21 2.73.97 4.71t2 3.28q1.24 1.29 2.95 1.93 1.71.64 3.78.64t3.57-.49q1.5-.48 2.62-1.06 1.12-.59 1.97-1.07.84-.49 1.63-.49 1.07 0 1.59.8l2.45 3.1q-1.41 1.66-3.17 2.78-1.76 1.12-3.68 1.79-1.91.68-3.9.95-1.98.28-3.84.28-3.69 0-6.87-1.23-3.17-1.22-5.52-3.62-2.34-2.4-3.69-5.93-1.34-3.54-1.34-8.2 0-3.62 1.17-6.81 1.17-3.19 3.36-5.56 2.19-2.36 5.35-3.74 3.16-1.38 7.12-1.38 3.35 0 6.18 1.07 2.83 1.07 4.86 3.12 2.04 2.06 3.19 5.04 1.16 2.98 1.16 6.81 0 1.94-.41 2.61-.42.67-1.59.67Zm16.9-8.42v15.87q1.45 1.76 3.16 2.49 1.71.72 3.71.72 1.93 0 3.48-.72 1.56-.73 2.64-2.21 1.09-1.48 1.68-3.74.58-2.26.58-5.33 0-3.11-.5-5.27-.5-2.15-1.43-3.5-.93-1.34-2.26-1.96-1.33-.63-3.02-.63-2.65 0-4.52 1.13-1.86 1.12-3.52 3.15Zm-1.13-8.79.69 3.27q2.17-2.45 4.93-3.96 2.76-1.52 6.49-1.52 2.89 0 5.29 1.2 2.4 1.21 4.14 3.51 1.74 2.29 2.69 5.65.95 3.37.95 7.72 0 3.96-1.07 7.34t-3.05 5.87q-1.99 2.48-4.8 3.88-2.81 1.4-6.29 1.4-2.97 0-5.07-.92-2.11-.91-3.77-2.53v14.49h-8.52V143h5.21q1.66 0 2.18 1.56Zm47.47-2.11q3.93 0 7.16 1.28 3.22 1.27 5.52 3.62 2.29 2.35 3.53 5.73 1.25 3.38 1.25 7.55 0 4.21-1.25 7.59-1.24 3.38-3.53 5.76-2.3 2.38-5.52 3.66-3.23 1.28-7.16 1.28-3.97 0-7.21-1.28-3.25-1.28-5.54-3.66t-3.55-5.76q-1.26-3.38-1.26-7.59 0-4.17 1.26-7.55t3.55-5.73q2.29-2.35 5.54-3.62 3.24-1.28 7.21-1.28Zm0 29.91q4.41 0 6.54-2.96 2.12-2.97 2.12-8.7 0-5.73-2.12-8.73-2.13-3-6.54-3-4.49 0-6.64 3.02-2.16 3.02-2.16 8.71 0 5.69 2.16 8.68 2.15 2.98 6.64 2.98Zm47.5-25.53-1.93 3.07q-.34.55-.72.78-.38.22-.97.22-.62 0-1.33-.34-.7-.35-1.63-.78-.94-.43-2.13-.77-1.19-.35-2.81-.35-2.52 0-3.95 1.07-1.43 1.07-1.43 2.79 0 1.14.74 1.92t1.97 1.36q1.22.59 2.78 1.05 1.55.47 3.15 1.02 1.61.55 3.16 1.26t2.78 1.8q1.22 1.08 1.96 2.6t.74 3.66q0 2.55-.91 4.71-.91 2.15-2.71 3.72-1.79 1.57-4.43 2.45-2.64.88-6.09.88-1.83 0-3.57-.33-1.74-.32-3.35-.91-1.6-.59-2.97-1.38-1.36-.79-2.39-1.73l1.96-3.24q.38-.58.9-.9.52-.31 1.31-.31.8 0 1.5.45.71.45 1.64.97.93.52 2.19.96 1.26.45 3.19.45 1.52 0 2.61-.36 1.08-.36 1.79-.95.71-.58 1.04-1.36.32-.78.32-1.6 0-1.25-.74-2.04t-1.96-1.38q-1.23-.59-2.8-1.05-1.57-.47-3.21-1.02t-3.21-1.29q-1.56-.75-2.79-1.88-1.22-1.14-1.97-2.8-.74-1.65-.74-4 0-2.17.86-4.14.87-1.97 2.54-3.43 1.67-1.47 4.17-2.35 2.51-.88 5.78-.88 3.66 0 6.66 1.21t5 3.17Zm7.08-3.83h8.55v35.4h-8.55V143Zm9.73-10.31q0 1.1-.45 2.07-.45.96-1.19 1.69-.74.72-1.74 1.15-1.01.43-2.14.43-1.11 0-2.09-.43-.98-.43-1.71-1.15-.72-.73-1.15-1.69-.44-.97-.44-2.07 0-1.14.44-2.14.43-1 1.15-1.73.73-.72 1.71-1.15.98-.43 2.09-.43 1.13 0 2.14.43 1 .43 1.74 1.15.74.73 1.19 1.73.45 1 .45 2.14Zm19.32 46.26q-4.63 0-7.09-2.6-2.47-2.61-2.47-7.2v-19.76h-3.62q-.69 0-1.18-.45-.48-.45-.48-1.35v-3.38l5.69-.93 1.8-9.66q.17-.69.65-1.07.49-.38 1.25-.38h4.41v11.14H317v6.08h-9.45v19.18q0 1.65.81 2.58.81.94 2.23.94.79 0 1.33-.19.53-.19.93-.4.39-.21.7-.4.31-.19.63-.19.37 0 .62.19.24.19.51.57l2.56 4.14q-1.87 1.55-4.28 2.35-2.42.79-5 .79Zm-213.2 56.1h5.8q2.62 0 4.57-.66 1.95-.65 3.21-1.81 1.26-1.15 1.88-2.74.62-1.59.62-3.48 0-3.8-2.5-5.84-2.5-2.03-7.64-2.03h-5.94v16.56Zm17.18 7.73 12.49 18.42h-8.38q-2.38 0-3.45-1.86l-10.49-15.98q-.58-.89-1.29-1.27-.71-.38-2.09-.38h-3.97v19.49h-9.28v-49.89h15.22q5.07 0 8.71 1.06 3.64 1.05 5.97 2.95 2.33 1.89 3.43 4.53 1.1 2.64 1.1 5.82 0 2.51-.74 4.76-.74 2.24-2.14 4.07-1.39 1.83-3.45 3.21-2.05 1.38-4.67 2.17.9.52 1.65 1.22.76.71 1.38 1.68Zm23.29-3.35h16.08q0-1.66-.47-3.12-.46-1.47-1.39-2.57-.94-1.11-2.37-1.74-1.43-.64-3.33-.64-3.69 0-5.81 2.1-2.12 2.11-2.71 5.97Zm21.74 5.14h-21.91q.21 2.73.97 4.71.75 1.98 2 3.28 1.24 1.29 2.95 1.93 1.7.64 3.77.64 2.07 0 3.57-.48 1.51-.49 2.63-1.07 1.12-.59 1.96-1.07.85-.49 1.64-.49 1.07 0 1.59.8l2.45 3.1q-1.42 1.66-3.18 2.78-1.76 1.12-3.67 1.79-1.91.68-3.9.95-1.98.28-3.85.28-3.69 0-6.86-1.23-3.17-1.22-5.52-3.62-2.35-2.4-3.69-5.93-1.35-3.54-1.35-8.2 0-3.62 1.18-6.81 1.17-3.19 3.36-5.56 2.19-2.36 5.35-3.74 3.15-1.38 7.12-1.38 3.35 0 6.18 1.07 2.83 1.07 4.86 3.12 2.04 2.06 3.19 5.04 1.16 2.98 1.16 6.81 0 1.94-.42 2.61-.41.67-1.58.67Zm35.98-14.39-2.24 3.11q-.38.48-.74.76-.37.27-1.06.27-.65 0-1.27-.39-.62-.4-1.49-.9-.86-.5-2.05-.9-1.19-.39-2.95-.39-2.24 0-3.93.81t-2.81 2.33q-1.12 1.51-1.68 3.67-.55 2.16-.55 4.88 0 2.83.61 5.04.6 2.21 1.74 3.71 1.14 1.5 2.76 2.28 1.62.77 3.65.77 2.04 0 3.3-.5 1.26-.5 2.12-1.1.86-.61 1.5-1.11.64-.5 1.43-.5 1.04 0 1.56.8l2.45 3.1q-1.42 1.66-3.08 2.78-1.65 1.12-3.43 1.79-1.77.68-3.65.95-1.89.28-3.75.28-3.28 0-6.17-1.23-2.9-1.22-5.08-3.57-2.17-2.34-3.43-5.74-1.26-3.4-1.26-7.75 0-3.9 1.12-7.23 1.13-3.32 3.3-5.76 2.17-2.43 5.38-3.81t7.38-1.38q3.97 0 6.96 1.28 2.98 1.27 5.36 3.65Zm12.39 9.25h16.07q0-1.66-.46-3.12-.47-1.47-1.4-2.57-.93-1.11-2.36-1.74-1.44-.64-3.33-.64-3.69 0-5.82 2.1-2.12 2.11-2.7 5.97Zm21.73 5.14h-21.91q.21 2.73.97 4.71t2 3.28q1.24 1.29 2.95 1.93 1.71.64 3.78.64t3.57-.48q1.5-.49 2.62-1.07 1.12-.59 1.97-1.07.84-.49 1.64-.49 1.07 0 1.58.8l2.45 3.1q-1.41 1.66-3.17 2.78-1.76 1.12-3.68 1.79-1.91.68-3.89.95-1.99.28-3.85.28-3.69 0-6.87-1.23-3.17-1.22-5.52-3.62-2.34-2.4-3.69-5.93-1.34-3.54-1.34-8.2 0-3.62 1.17-6.81 1.17-3.19 3.36-5.56 2.19-2.36 5.35-3.74 3.16-1.38 7.12-1.38 3.35 0 6.18 1.07 2.83 1.07 4.86 3.12 2.04 2.06 3.2 5.04 1.15 2.98 1.15 6.81 0 1.94-.41 2.61-.42.67-1.59.67Zm8.66-18.77h8.56v35.4h-8.56v-35.4Zm9.73-10.31q0 1.1-.45 2.07-.45.96-1.19 1.69-.74.72-1.74 1.15-1 .44-2.14.44-1.1 0-2.09-.44-.98-.43-1.71-1.15-.72-.73-1.15-1.69-.43-.97-.43-2.07 0-1.14.43-2.14.43-1 1.15-1.73.73-.72 1.71-1.15.99-.43 2.09-.43 1.14 0 2.14.43 1 .43 1.74 1.15.74.73 1.19 1.73.45 1 .45 2.14Zm16.04 20.66v15.87q1.45 1.76 3.16 2.49 1.71.72 3.71.72 1.93 0 3.48-.72 1.55-.73 2.64-2.21t1.67-3.74q.59-2.26.59-5.33 0-3.11-.5-5.27-.5-2.15-1.43-3.5-.93-1.34-2.26-1.96-1.33-.62-3.02-.62-2.66 0-4.52 1.12-1.86 1.12-3.52 3.15Zm-1.14-8.79.69 3.27q2.18-2.45 4.94-3.96 2.76-1.52 6.48-1.52 2.9 0 5.3 1.21 2.4 1.2 4.14 3.5 1.74 2.29 2.69 5.65.95 3.37.95 7.72 0 3.96-1.07 7.34-1.07 3.39-3.05 5.87-1.99 2.48-4.8 3.88-2.81 1.4-6.3 1.4-2.96 0-5.07-.92-2.1-.91-3.76-2.53v14.49h-8.52V225.8h5.21q1.66 0 2.17 1.56Zm43.61 34.39q-4.62 0-7.09-2.6-2.46-2.61-2.46-7.2v-19.76h-3.63q-.69 0-1.17-.45t-.48-1.35v-3.38l5.69-.93 1.79-9.66q.18-.69.66-1.07.48-.38 1.24-.38h4.42v11.14h9.45v6.08h-9.45v19.18q0 1.65.81 2.59.81.93 2.22.93.8 0 1.33-.19.54-.19.93-.4.4-.21.71-.4.31-.19.62-.19.38 0 .62.19t.52.57l2.55 4.14q-1.86 1.56-4.28 2.35-2.41.79-5 .79Z"/></svg>