<svg xmlns="http://www.w3.org/2000/svg" width="400" height="400" viewBox="0 0 400 400"><rect width="100%" height="100%" fill="#DDDDDD"/><path fill="#999999" d="M89.39 196.355q0 3.57.96 6.4.96 2.84 2.74 4.81 1.79 1.96 4.32 3.01 2.54 1.05 5.72 1.05 3.18 0 5.71-1.05 2.54-1.05 4.31-3.01 1.77-1.97 2.73-4.81.96-2.83.96-6.4 0-3.57-.96-6.4-.96-2.84-2.73-4.82-1.77-1.98-4.31-3.03-2.53-1.05-5.71-1.05t-5.72 1.05q-2.53 1.05-4.32 3.03-1.78 1.98-2.74 4.82-.96 2.83-.96 6.4Zm26.94 18.18 11.01 12h-6.66q-1.44 0-2.6-.39-1.15-.39-2.11-1.44l-6.36-7.02q-1.53.42-3.14.63-1.6.21-3.34.21-4.92 0-8.97-1.67-4.05-1.66-6.95-4.63-2.89-2.97-4.48-7.03-1.59-4.07-1.59-8.84t1.59-8.83q1.59-4.07 4.48-7.04 2.9-2.97 6.95-4.64 4.05-1.66 8.97-1.66 3.3 0 6.21.77 2.91.76 5.34 2.16 2.43 1.39 4.36 3.38 1.94 2 3.29 4.46t2.05 5.34q.71 2.88.71 6.06 0 2.91-.6 5.56-.6 2.66-1.73 4.97-1.12 2.31-2.74 4.24-1.62 1.94-3.69 3.41Zm23.91-19.23h5.04q2.28 0 3.97-.57 1.7-.57 2.79-1.57 1.1-1.01 1.64-2.39.54-1.38.54-3.03 0-3.3-2.18-5.07-2.17-1.77-6.64-1.77h-5.16v14.4Zm14.94 6.72 10.86 16.02h-7.29q-2.07 0-3-1.62l-9.12-13.89q-.51-.78-1.13-1.11-.61-.33-1.81-.33h-3.45v16.95h-8.07v-43.38h13.23q4.41 0 7.57.92 3.17.91 5.19 2.56 2.03 1.65 2.99 3.95.96 2.29.96 5.05 0 2.19-.65 4.14-.64 1.95-1.86 3.54-1.21 1.59-3 2.79-1.78 1.2-4.06 1.89.78.45 1.44 1.07.66.61 1.2 1.45Zm59.94 5.79q.66 0 1.17.51l3.18 3.45q-2.64 3.27-6.5 5.01-3.85 1.74-9.25 1.74-4.83 0-8.69-1.65-3.85-1.65-6.58-4.59t-4.19-7.02q-1.45-4.08-1.45-8.91 0-4.89 1.56-8.95 1.56-4.07 4.39-7.01 2.84-2.94 6.77-4.58 3.93-1.63 8.7-1.63 4.74 0 8.41 1.56 3.68 1.56 6.26 4.08l-2.7 3.75q-.24.36-.62.63-.37.27-1.03.27-.45 0-.93-.25-.48-.26-1.05-.63-.57-.38-1.32-.83-.75-.45-1.74-.82-.99-.38-2.3-.63-1.3-.26-3.01-.26-2.91 0-5.33 1.04-2.41 1.03-4.15 3-1.74 1.96-2.7 4.8-.96 2.83-.96 6.46 0 3.66 1.03 6.51 1.04 2.85 2.81 4.8 1.77 1.95 4.17 2.99 2.4 1.03 5.16 1.03 1.65 0 2.98-.18 1.34-.18 2.46-.57 1.13-.39 2.13-1.01 1.01-.61 2-1.51.3-.27.63-.43.33-.17.69-.17Zm22.35-21.03q3.42 0 6.22 1.11 2.81 1.11 4.8 3.15 2 2.04 3.08 4.98 1.08 2.94 1.08 6.57 0 3.66-1.08 6.6-1.08 2.94-3.08 5.01-1.99 2.07-4.8 3.18-2.8 1.11-6.22 1.11-3.45 0-6.27-1.11-2.82-1.11-4.82-3.18-1.99-2.07-3.09-5.01-1.09-2.94-1.09-6.6 0-3.63 1.09-6.57 1.1-2.94 3.09-4.98 2-2.04 4.82-3.15 2.82-1.11 6.27-1.11Zm0 26.01q3.84 0 5.68-2.58 1.85-2.58 1.85-7.56 0-4.98-1.85-7.59-1.84-2.61-5.68-2.61-3.9 0-5.78 2.63-1.87 2.62-1.87 7.57t1.87 7.55q1.88 2.59 5.78 2.59Zm40.17-3.87v-13.8q-1.26-1.53-2.75-2.16-1.48-.63-3.19-.63-1.68 0-3.03.63-1.35.63-2.31 1.9-.96 1.28-1.47 3.25-.51 1.96-.51 4.63 0 2.7.43 4.58.44 1.87 1.25 3.05.81 1.19 1.98 1.71 1.17.53 2.61.53 2.31 0 3.93-.96t3.06-2.73Zm0-35.46h7.41v44.58h-4.53q-1.47 0-1.86-1.35l-.63-2.97q-1.86 2.13-4.28 3.45-2.41 1.32-5.62 1.32-2.52 0-4.62-1.05t-3.62-3.05q-1.51-1.99-2.34-4.93-.82-2.94-.82-6.72 0-3.42.93-6.36.93-2.94 2.67-5.1 1.74-2.16 4.17-3.37 2.43-1.22 5.46-1.22 2.58 0 4.41.81t3.27 2.19v-16.23Zm20.58 25.65h13.98q0-1.44-.41-2.71-.4-1.28-1.21-2.24-.81-.96-2.06-1.51-1.24-.56-2.89-.56-3.21 0-5.06 1.83-1.84 1.83-2.35 5.19Zm18.9 4.47h-19.05q.18 2.37.84 4.09.66 1.73 1.74 2.86 1.08 1.12 2.56 1.68 1.49.55 3.29.55t3.1-.42q1.31-.42 2.28-.93.98-.51 1.71-.93.74-.42 1.43-.42.93 0 1.38.69l2.13 2.7q-1.23 1.44-2.76 2.42-1.53.97-3.2 1.56-1.66.58-3.39.82-1.72.24-3.34.24-3.21 0-5.97-1.06-2.76-1.07-4.8-3.15-2.04-2.09-3.21-5.16-1.17-3.08-1.17-7.13 0-3.15 1.02-5.92 1.02-2.78 2.92-4.83 1.91-2.06 4.65-3.26 2.75-1.2 6.2-1.2 2.91 0 5.37.93t4.23 2.72q1.77 1.78 2.77 4.38 1.01 2.59 1.01 5.92 0 1.68-.36 2.27-.36.58-1.38.58Z"/></svg>